<svg width="161" height="159" viewBox="0 0 161 159" fill="none" xmlns="http://www.w3.org/2000/svg">
<mask id="mask0_1_6" style="mask-type:luminance" maskUnits="userSpaceOnUse" x="0" y="1" width="161" height="158">
<path d="M0.655273 1.09644H160.545V159H0.655273V1.09644Z" fill="white"/>
</mask>
<g mask="url(#mask0_1_6)">
<path d="M80.6 0.903564C36.4204 0.903564 0.459961 36.3787 0.459961 80.0309C0.459961 123.683 36.4204 159.175 80.6 159.175C124.801 159.175 160.739 123.7 160.739 80.0309C160.739 36.3958 124.784 0.903564 80.6 0.903564ZM51.5184 133.419C51.5184 131.192 53.3662 129.384 55.6042 129.384H105.561C107.816 129.384 109.647 131.209 109.647 133.419C109.647 135.63 107.799 137.454 105.561 137.454H55.6216C53.3662 137.454 51.5184 135.647 51.5184 133.419ZM118.052 114.825H43.1345C40.8791 114.825 39.0488 113 39.0488 110.786C39.0488 108.576 40.8964 106.751 43.1345 106.751H118.052C120.308 106.751 122.138 108.576 122.138 110.786C122.138 113 120.308 114.825 118.052 114.825ZM29.6846 91.8231C27.4119 91.8231 25.5988 90.0156 25.5988 87.7882C25.5988 85.5564 27.4292 83.7532 29.6846 83.7532H76.4969V47.961C71.2227 46.2392 67.3322 41.4845 67.3322 35.7147C67.3322 28.5015 73.283 22.6247 80.5827 22.6247C87.904 22.6247 93.8374 28.5015 93.8374 35.7147C93.8374 41.4845 89.9468 46.2563 84.6683 47.961V83.7318H131.481C133.758 83.7318 135.566 85.5564 135.566 87.7711C135.566 90.0156 133.74 91.806 131.481 91.806H29.6846V91.8231Z" fill="white"/>
</g>
</svg>
